<mxfile host="app.diagrams.net" modified="2023-11-06T13:06:36.374Z" agent="Mozilla/5.0 (Windows NT 10.0; Win64; x64) AppleWebKit/537.36 (KHTML, like Gecko) Chrome/117.0.0.0 Safari/537.36" etag="RJNpeP7LWOC5AX2sxocC" version="21.6.9" type="github" pages="2">
  <diagram name="第 1 页" id="Qr6vakDrju1xn6KvEsF8">
    <mxGraphModel dx="2963" dy="1586" grid="0" gridSize="10" guides="1" tooltips="1" connect="1" arrows="1" fold="1" page="1" pageScale="1" pageWidth="2339" pageHeight="3300" math="0" shadow="0">
      <root>
        <mxCell id="0" />
        <mxCell id="1" parent="0" />
        <mxCell id="zulZAHrHHTT8NIzmMI81-4" value="" style="rounded=0;whiteSpace=wrap;html=1;dashed=1;dashPattern=8 8;strokeWidth=2;" parent="1" vertex="1">
          <mxGeometry x="403" y="126" width="917" height="418.5" as="geometry" />
        </mxCell>
        <mxCell id="zulZAHrHHTT8NIzmMI81-9" value="" style="rounded=0;whiteSpace=wrap;html=1;dashed=1;dashPattern=8 8;strokeWidth=2;" parent="1" vertex="1">
          <mxGeometry x="1116" y="218" width="123" height="286" as="geometry" />
        </mxCell>
        <mxCell id="zulZAHrHHTT8NIzmMI81-8" value="" style="rounded=0;whiteSpace=wrap;html=1;dashed=1;dashPattern=8 8;strokeWidth=2;" parent="1" vertex="1">
          <mxGeometry x="955" y="219" width="161" height="286" as="geometry" />
        </mxCell>
        <mxCell id="zulZAHrHHTT8NIzmMI81-7" value="" style="rounded=0;whiteSpace=wrap;html=1;dashed=1;dashPattern=8 8;strokeWidth=2;" parent="1" vertex="1">
          <mxGeometry x="771" y="219" width="183" height="287" as="geometry" />
        </mxCell>
        <mxCell id="zulZAHrHHTT8NIzmMI81-6" value="" style="rounded=0;whiteSpace=wrap;html=1;dashed=1;dashPattern=8 8;strokeWidth=2;" parent="1" vertex="1">
          <mxGeometry x="524" y="219" width="247" height="288" as="geometry" />
        </mxCell>
        <mxCell id="-uCr5wKV6WLhJTsjas4j-22" style="edgeStyle=orthogonalEdgeStyle;rounded=0;orthogonalLoop=1;jettySize=auto;html=1;exitX=1;exitY=0.5;exitDx=0;exitDy=0;entryX=0;entryY=0.5;entryDx=0;entryDy=0;strokeWidth=2;" parent="1" edge="1">
          <mxGeometry relative="1" as="geometry">
            <mxPoint x="773" y="285" as="sourcePoint" />
            <mxPoint x="926" y="285" as="targetPoint" />
          </mxGeometry>
        </mxCell>
        <mxCell id="yIvQLH9KiMLjOAJsWwCe-1" value="" style="rounded=0;whiteSpace=wrap;html=1;fillColor=#bac8d3;strokeColor=#23445d;strokeWidth=2;" parent="1" vertex="1">
          <mxGeometry x="740" y="254.5" width="31" height="213" as="geometry" />
        </mxCell>
        <mxCell id="yIvQLH9KiMLjOAJsWwCe-2" value="" style="rounded=0;whiteSpace=wrap;html=1;fillColor=#bac8d3;strokeColor=#23445d;strokeWidth=2;" parent="1" vertex="1">
          <mxGeometry x="924" y="254.5" width="31" height="213" as="geometry" />
        </mxCell>
        <mxCell id="yIvQLH9KiMLjOAJsWwCe-3" value="" style="rounded=0;whiteSpace=wrap;html=1;fillColor=#bac8d3;strokeColor=#23445d;strokeWidth=2;" parent="1" vertex="1">
          <mxGeometry x="1085" y="256" width="31" height="213" as="geometry" />
        </mxCell>
        <mxCell id="yIvQLH9KiMLjOAJsWwCe-5" value="&lt;font style=&quot;font-size: 28px;&quot;&gt;s0&lt;/font&gt;" style="text;html=1;strokeColor=none;fillColor=none;align=center;verticalAlign=middle;whiteSpace=wrap;rounded=0;strokeWidth=2;" parent="1" vertex="1">
          <mxGeometry x="574" y="219" width="60" height="30" as="geometry" />
        </mxCell>
        <mxCell id="yIvQLH9KiMLjOAJsWwCe-6" value="&lt;font style=&quot;font-size: 28px;&quot;&gt;s1&lt;/font&gt;" style="text;html=1;strokeColor=none;fillColor=none;align=center;verticalAlign=middle;whiteSpace=wrap;rounded=0;strokeWidth=2;" parent="1" vertex="1">
          <mxGeometry x="765" y="219" width="60" height="30" as="geometry" />
        </mxCell>
        <mxCell id="yIvQLH9KiMLjOAJsWwCe-7" value="&lt;font style=&quot;font-size: 28px;&quot;&gt;s2&lt;/font&gt;" style="text;html=1;strokeColor=none;fillColor=none;align=center;verticalAlign=middle;whiteSpace=wrap;rounded=0;strokeWidth=2;" parent="1" vertex="1">
          <mxGeometry x="948" y="219" width="60" height="30" as="geometry" />
        </mxCell>
        <mxCell id="yIvQLH9KiMLjOAJsWwCe-8" value="&lt;font style=&quot;font-size: 28px;&quot;&gt;s3&lt;/font&gt;" style="text;html=1;strokeColor=none;fillColor=none;align=center;verticalAlign=middle;whiteSpace=wrap;rounded=0;strokeWidth=2;" parent="1" vertex="1">
          <mxGeometry x="1109" y="219" width="60" height="30" as="geometry" />
        </mxCell>
        <mxCell id="yIvQLH9KiMLjOAJsWwCe-9" value="&lt;span style=&quot;font-size: 48px;&quot;&gt;&lt;font color=&quot;#000000&quot;&gt;Dcache&lt;/font&gt;&lt;/span&gt;" style="rounded=0;whiteSpace=wrap;html=1;fillColor=#CDA2BE;fontColor=#FFFFFF;shadow=1;" parent="1" vertex="1">
          <mxGeometry x="1287.25" y="320.5" width="568.5" height="147" as="geometry" />
        </mxCell>
        <mxCell id="yIvQLH9KiMLjOAJsWwCe-10" value="&lt;font style=&quot;font-size: 28px;&quot;&gt;buffer0&lt;/font&gt;" style="rounded=1;whiteSpace=wrap;html=1;fillColor=#FFB570;strokeWidth=2;shadow=1;" parent="1" vertex="1">
          <mxGeometry x="1512" y="614" width="119" height="72" as="geometry" />
        </mxCell>
        <mxCell id="yIvQLH9KiMLjOAJsWwCe-13" value="" style="rounded=0;whiteSpace=wrap;html=1;fillColor=#f3b778;strokeColor=#000000;strokeWidth=2;shadow=1;" parent="1" vertex="1">
          <mxGeometry x="696" y="828.5" width="1012.5" height="197" as="geometry" />
        </mxCell>
        <mxCell id="yIvQLH9KiMLjOAJsWwCe-14" value="" style="endArrow=classic;html=1;rounded=0;exitX=0.54;exitY=1;exitDx=0;exitDy=0;exitPerimeter=0;entryX=0.692;entryY=0;entryDx=0;entryDy=0;entryPerimeter=0;strokeWidth=2;" parent="1" source="yIvQLH9KiMLjOAJsWwCe-9" target="yIvQLH9KiMLjOAJsWwCe-10" edge="1">
          <mxGeometry width="50" height="50" relative="1" as="geometry">
            <mxPoint x="1953" y="549" as="sourcePoint" />
            <mxPoint x="2003" y="499" as="targetPoint" />
          </mxGeometry>
        </mxCell>
        <mxCell id="yIvQLH9KiMLjOAJsWwCe-17" value="" style="endArrow=classic;html=1;rounded=0;exitX=0.75;exitY=1;exitDx=0;exitDy=0;entryX=0.895;entryY=0.001;entryDx=0;entryDy=0;entryPerimeter=0;strokeWidth=2;" parent="1" source="yIvQLH9KiMLjOAJsWwCe-10" target="yIvQLH9KiMLjOAJsWwCe-13" edge="1">
          <mxGeometry width="50" height="50" relative="1" as="geometry">
            <mxPoint x="1602" y="811" as="sourcePoint" />
            <mxPoint x="1743" y="811" as="targetPoint" />
          </mxGeometry>
        </mxCell>
        <mxCell id="yIvQLH9KiMLjOAJsWwCe-18" value="" style="endArrow=classic;html=1;rounded=0;exitX=0.836;exitY=0.004;exitDx=0;exitDy=0;entryX=0.25;entryY=1;entryDx=0;entryDy=0;exitPerimeter=0;strokeWidth=2;" parent="1" source="yIvQLH9KiMLjOAJsWwCe-13" target="yIvQLH9KiMLjOAJsWwCe-10" edge="1">
          <mxGeometry width="50" height="50" relative="1" as="geometry">
            <mxPoint x="1612" y="821" as="sourcePoint" />
            <mxPoint x="1542" y="811" as="targetPoint" />
          </mxGeometry>
        </mxCell>
        <mxCell id="yIvQLH9KiMLjOAJsWwCe-21" value="" style="endArrow=classic;html=1;rounded=0;exitX=0.25;exitY=0;exitDx=0;exitDy=0;entryX=0.447;entryY=1.007;entryDx=0;entryDy=0;entryPerimeter=0;strokeWidth=2;" parent="1" source="yIvQLH9KiMLjOAJsWwCe-10" target="yIvQLH9KiMLjOAJsWwCe-9" edge="1">
          <mxGeometry width="50" height="50" relative="1" as="geometry">
            <mxPoint x="1545" y="505" as="sourcePoint" />
            <mxPoint x="1536" y="444" as="targetPoint" />
          </mxGeometry>
        </mxCell>
        <mxCell id="-uCr5wKV6WLhJTsjas4j-28" style="edgeStyle=orthogonalEdgeStyle;rounded=0;orthogonalLoop=1;jettySize=auto;html=1;exitX=0;exitY=0.5;exitDx=0;exitDy=0;entryX=0.295;entryY=0.98;entryDx=0;entryDy=0;entryPerimeter=0;strokeWidth=2;" parent="1" source="yIvQLH9KiMLjOAJsWwCe-23" target="-uCr5wKV6WLhJTsjas4j-2" edge="1">
          <mxGeometry relative="1" as="geometry">
            <Array as="points">
              <mxPoint x="507" y="596" />
              <mxPoint x="507" y="261" />
            </Array>
          </mxGeometry>
        </mxCell>
        <mxCell id="yIvQLH9KiMLjOAJsWwCe-23" value="&lt;font style=&quot;font-size: 36px;&quot;&gt;load replay queue&lt;/font&gt;" style="rounded=0;whiteSpace=wrap;html=1;fillColor=#CDA2BE;strokeColor=#9673a6;strokeWidth=2;shadow=1;" parent="1" vertex="1">
          <mxGeometry x="699.5" y="567" width="569" height="59" as="geometry" />
        </mxCell>
        <mxCell id="yIvQLH9KiMLjOAJsWwCe-25" value="&lt;font style=&quot;font-size: 28px;&quot;&gt;buffer0&lt;/font&gt;" style="rounded=1;whiteSpace=wrap;html=1;fillColor=#FFB570;strokeWidth=2;shadow=1;" parent="1" vertex="1">
          <mxGeometry x="923.5" y="676" width="120.5" height="63" as="geometry" />
        </mxCell>
        <mxCell id="yIvQLH9KiMLjOAJsWwCe-30" value="" style="endArrow=classic;html=1;rounded=0;entryX=0.5;entryY=1;entryDx=0;entryDy=0;exitX=0.283;exitY=0.013;exitDx=0;exitDy=0;exitPerimeter=0;strokeWidth=2;" parent="1" source="yIvQLH9KiMLjOAJsWwCe-13" target="yIvQLH9KiMLjOAJsWwCe-25" edge="1">
          <mxGeometry width="50" height="50" relative="1" as="geometry">
            <mxPoint x="989" y="818" as="sourcePoint" />
            <mxPoint x="989" y="798" as="targetPoint" />
          </mxGeometry>
        </mxCell>
        <mxCell id="yIvQLH9KiMLjOAJsWwCe-33" value="" style="endArrow=classic;html=1;rounded=0;entryX=0.5;entryY=1;entryDx=0;entryDy=0;exitX=0.5;exitY=0;exitDx=0;exitDy=0;strokeWidth=2;" parent="1" source="yIvQLH9KiMLjOAJsWwCe-25" target="yIvQLH9KiMLjOAJsWwCe-23" edge="1">
          <mxGeometry width="50" height="50" relative="1" as="geometry">
            <mxPoint x="1004" y="816" as="sourcePoint" />
            <mxPoint x="1004" y="795" as="targetPoint" />
          </mxGeometry>
        </mxCell>
        <mxCell id="yIvQLH9KiMLjOAJsWwCe-37" value="&lt;font style=&quot;font-size: 28px;&quot;&gt;miss&lt;/font&gt;" style="text;html=1;strokeColor=none;fillColor=none;align=center;verticalAlign=middle;whiteSpace=wrap;rounded=0;strokeWidth=2;" parent="1" vertex="1">
          <mxGeometry x="1113" y="138" width="60" height="30" as="geometry" />
        </mxCell>
        <mxCell id="yIvQLH9KiMLjOAJsWwCe-38" value="&lt;font style=&quot;font-size: 28px;&quot;&gt;req&lt;/font&gt;" style="text;html=1;strokeColor=none;fillColor=none;align=center;verticalAlign=middle;whiteSpace=wrap;rounded=0;strokeWidth=2;" parent="1" vertex="1">
          <mxGeometry x="1602" y="510" width="60" height="30" as="geometry" />
        </mxCell>
        <mxCell id="yIvQLH9KiMLjOAJsWwCe-41" value="&lt;font style=&quot;font-size: 28px;&quot;&gt;req&lt;/font&gt;" style="text;html=1;strokeColor=none;fillColor=none;align=center;verticalAlign=middle;whiteSpace=wrap;rounded=0;strokeWidth=2;" parent="1" vertex="1">
          <mxGeometry x="1602" y="739" width="60" height="30" as="geometry" />
        </mxCell>
        <mxCell id="yIvQLH9KiMLjOAJsWwCe-42" value="&lt;font style=&quot;font-size: 28px;&quot;&gt;resp&lt;/font&gt;" style="text;html=1;strokeColor=none;fillColor=none;align=center;verticalAlign=middle;whiteSpace=wrap;rounded=0;strokeWidth=2;" parent="1" vertex="1">
          <mxGeometry x="1467" y="742" width="60" height="30" as="geometry" />
        </mxCell>
        <mxCell id="-uCr5wKV6WLhJTsjas4j-35" style="edgeStyle=orthogonalEdgeStyle;rounded=0;orthogonalLoop=1;jettySize=auto;html=1;exitX=0;exitY=0.5;exitDx=0;exitDy=0;entryX=0.55;entryY=0.95;entryDx=0;entryDy=0;entryPerimeter=0;strokeWidth=2;" parent="1" source="yIvQLH9KiMLjOAJsWwCe-45" target="-uCr5wKV6WLhJTsjas4j-18" edge="1">
          <mxGeometry relative="1" as="geometry" />
        </mxCell>
        <mxCell id="yIvQLH9KiMLjOAJsWwCe-45" value="&lt;font style=&quot;font-size: 28px;&quot;&gt;resp&lt;/font&gt;" style="text;html=1;strokeColor=none;fillColor=none;align=center;verticalAlign=middle;whiteSpace=wrap;rounded=0;strokeWidth=2;" parent="1" vertex="1">
          <mxGeometry x="1461" y="505" width="72" height="35" as="geometry" />
        </mxCell>
        <mxCell id="8crFgqfBHU2Xec6mAjXd-1" value="&lt;font style=&quot;font-size: 28px;&quot;&gt;replay&lt;/font&gt;" style="text;html=1;strokeColor=none;fillColor=none;align=center;verticalAlign=middle;whiteSpace=wrap;rounded=0;strokeWidth=2;" parent="1" vertex="1">
          <mxGeometry x="419" y="403" width="86" height="39" as="geometry" />
        </mxCell>
        <mxCell id="8crFgqfBHU2Xec6mAjXd-3" value="&lt;font style=&quot;font-size: 28px;&quot;&gt;early wakeup&lt;/font&gt;" style="text;html=1;strokeColor=none;fillColor=none;align=center;verticalAlign=middle;whiteSpace=wrap;rounded=0;strokeWidth=2;" parent="1" vertex="1">
          <mxGeometry x="991" y="620" width="178" height="51" as="geometry" />
        </mxCell>
        <mxCell id="zulZAHrHHTT8NIzmMI81-5" value="&lt;font style=&quot;font-size: 36px;&quot;&gt;load pipe line&lt;/font&gt;" style="rounded=0;whiteSpace=wrap;html=1;strokeColor=none;strokeWidth=2;" parent="1" vertex="1">
          <mxGeometry x="412" y="133" width="227" height="70" as="geometry" />
        </mxCell>
        <mxCell id="-uCr5wKV6WLhJTsjas4j-5" style="edgeStyle=orthogonalEdgeStyle;rounded=0;orthogonalLoop=1;jettySize=auto;html=1;exitX=0.5;exitY=0;exitDx=0;exitDy=0;entryX=0;entryY=0.135;entryDx=0;entryDy=0;entryPerimeter=0;strokeWidth=2;" parent="1" source="-uCr5wKV6WLhJTsjas4j-2" target="yIvQLH9KiMLjOAJsWwCe-1" edge="1">
          <mxGeometry relative="1" as="geometry" />
        </mxCell>
        <mxCell id="-uCr5wKV6WLhJTsjas4j-2" value="" style="shape=trapezoid;perimeter=trapezoidPerimeter;whiteSpace=wrap;html=1;fixedSize=1;direction=south;strokeWidth=2;" parent="1" vertex="1">
          <mxGeometry x="561" y="226" width="23" height="119" as="geometry" />
        </mxCell>
        <mxCell id="-uCr5wKV6WLhJTsjas4j-3" value="&lt;font style=&quot;font-size: 28px;&quot;&gt;MSHR&lt;/font&gt;" style="rounded=0;whiteSpace=wrap;html=1;strokeWidth=2;fillColor=#ffb570;shadow=1;" parent="1" vertex="1">
          <mxGeometry x="1287.25" y="420.5" width="326.25" height="47" as="geometry" />
        </mxCell>
        <mxCell id="-uCr5wKV6WLhJTsjas4j-6" value="" style="ellipse;shape=cloud;whiteSpace=wrap;html=1;strokeWidth=2;" parent="1" vertex="1">
          <mxGeometry x="594" y="248" width="120" height="80" as="geometry" />
        </mxCell>
        <mxCell id="-uCr5wKV6WLhJTsjas4j-8" style="edgeStyle=orthogonalEdgeStyle;rounded=0;orthogonalLoop=1;jettySize=auto;html=1;exitX=0.55;exitY=0.95;exitDx=0;exitDy=0;exitPerimeter=0;entryX=0.5;entryY=0;entryDx=0;entryDy=0;strokeWidth=2;" parent="1" source="-uCr5wKV6WLhJTsjas4j-7" target="yIvQLH9KiMLjOAJsWwCe-23" edge="1">
          <mxGeometry relative="1" as="geometry" />
        </mxCell>
        <mxCell id="-uCr5wKV6WLhJTsjas4j-18" value="&lt;font style=&quot;font-size: 24px;&quot;&gt;forward&lt;/font&gt;" style="ellipse;shape=cloud;whiteSpace=wrap;html=1;strokeWidth=2;" parent="1" vertex="1">
          <mxGeometry x="788" y="245.5" width="120" height="80" as="geometry" />
        </mxCell>
        <mxCell id="-uCr5wKV6WLhJTsjas4j-25" value="&lt;font style=&quot;font-size: 28px;&quot;&gt;early wakeup&lt;/font&gt;" style="text;html=1;strokeColor=none;fillColor=none;align=center;verticalAlign=middle;whiteSpace=wrap;rounded=0;strokeWidth=2;" parent="1" vertex="1">
          <mxGeometry x="993" y="759.5" width="178" height="51" as="geometry" />
        </mxCell>
        <mxCell id="-uCr5wKV6WLhJTsjas4j-31" style="edgeStyle=orthogonalEdgeStyle;rounded=0;orthogonalLoop=1;jettySize=auto;html=1;exitX=1;exitY=0.5;exitDx=0;exitDy=0;entryX=0.75;entryY=1;entryDx=0;entryDy=0;strokeWidth=2;" parent="1" source="-uCr5wKV6WLhJTsjas4j-30" target="-uCr5wKV6WLhJTsjas4j-2" edge="1">
          <mxGeometry relative="1" as="geometry" />
        </mxCell>
        <mxCell id="-uCr5wKV6WLhJTsjas4j-36" value="" style="endArrow=classic;html=1;rounded=0;exitX=0;exitY=0.25;exitDx=0;exitDy=0;entryX=0.025;entryY=0.153;entryDx=0;entryDy=0;entryPerimeter=0;strokeWidth=2;" parent="1" source="zulZAHrHHTT8NIzmMI81-8" target="yIvQLH9KiMLjOAJsWwCe-3" edge="1">
          <mxGeometry width="50" height="50" relative="1" as="geometry">
            <mxPoint x="1548" y="171" as="sourcePoint" />
            <mxPoint x="1598" y="121" as="targetPoint" />
          </mxGeometry>
        </mxCell>
        <mxCell id="-uCr5wKV6WLhJTsjas4j-30" value="&lt;font style=&quot;font-size: 28px;&quot;&gt;From IQ&lt;/font&gt;" style="rounded=0;whiteSpace=wrap;html=1;strokeColor=none;" parent="1" vertex="1">
          <mxGeometry x="249" y="285" width="120" height="60" as="geometry" />
        </mxCell>
        <mxCell id="-uCr5wKV6WLhJTsjas4j-7" value="&lt;font style=&quot;font-size: 28px;&quot;&gt;miss&lt;/font&gt;" style="ellipse;shape=cloud;whiteSpace=wrap;html=1;strokeWidth=2;" parent="1" vertex="1">
          <mxGeometry x="960" y="248" width="120" height="80" as="geometry" />
        </mxCell>
        <mxCell id="-uCr5wKV6WLhJTsjas4j-37" value="" style="endArrow=classic;html=1;rounded=0;exitX=0.961;exitY=0.164;exitDx=0;exitDy=0;exitPerimeter=0;strokeWidth=2;" parent="1" source="yIvQLH9KiMLjOAJsWwCe-3" edge="1">
          <mxGeometry width="50" height="50" relative="1" as="geometry">
            <mxPoint x="1525" y="212" as="sourcePoint" />
            <mxPoint x="1449" y="291" as="targetPoint" />
          </mxGeometry>
        </mxCell>
        <mxCell id="hqws4eyCwoRaeHzbvHXF-1" value="" style="shape=table;startSize=0;container=1;collapsible=0;childLayout=tableLayout;fillColor=#bac8d3;strokeColor=#23445d;strokeWidth=2;" vertex="1" parent="1">
          <mxGeometry x="1504" y="830.75" width="148" height="128" as="geometry" />
        </mxCell>
        <mxCell id="hqws4eyCwoRaeHzbvHXF-2" value="" style="shape=tableRow;horizontal=0;startSize=0;swimlaneHead=0;swimlaneBody=0;strokeColor=inherit;top=0;left=0;bottom=0;right=0;collapsible=0;dropTarget=0;fillColor=none;points=[[0,0.5],[1,0.5]];portConstraint=eastwest;" vertex="1" parent="hqws4eyCwoRaeHzbvHXF-1">
          <mxGeometry width="148" height="32" as="geometry" />
        </mxCell>
        <mxCell id="hqws4eyCwoRaeHzbvHXF-3" value="" style="shape=partialRectangle;html=1;whiteSpace=wrap;connectable=0;strokeColor=inherit;overflow=hidden;fillColor=none;top=0;left=0;bottom=0;right=0;pointerEvents=1;" vertex="1" parent="hqws4eyCwoRaeHzbvHXF-2">
          <mxGeometry width="148" height="32" as="geometry">
            <mxRectangle width="148" height="32" as="alternateBounds" />
          </mxGeometry>
        </mxCell>
        <mxCell id="hqws4eyCwoRaeHzbvHXF-4" value="" style="shape=tableRow;horizontal=0;startSize=0;swimlaneHead=0;swimlaneBody=0;strokeColor=inherit;top=0;left=0;bottom=0;right=0;collapsible=0;dropTarget=0;fillColor=none;points=[[0,0.5],[1,0.5]];portConstraint=eastwest;" vertex="1" parent="hqws4eyCwoRaeHzbvHXF-1">
          <mxGeometry y="32" width="148" height="32" as="geometry" />
        </mxCell>
        <mxCell id="hqws4eyCwoRaeHzbvHXF-5" value="" style="shape=partialRectangle;html=1;whiteSpace=wrap;connectable=0;strokeColor=inherit;overflow=hidden;fillColor=none;top=0;left=0;bottom=0;right=0;pointerEvents=1;" vertex="1" parent="hqws4eyCwoRaeHzbvHXF-4">
          <mxGeometry width="148" height="32" as="geometry">
            <mxRectangle width="148" height="32" as="alternateBounds" />
          </mxGeometry>
        </mxCell>
        <mxCell id="hqws4eyCwoRaeHzbvHXF-6" value="" style="shape=tableRow;horizontal=0;startSize=0;swimlaneHead=0;swimlaneBody=0;strokeColor=inherit;top=0;left=0;bottom=0;right=0;collapsible=0;dropTarget=0;fillColor=none;points=[[0,0.5],[1,0.5]];portConstraint=eastwest;" vertex="1" parent="hqws4eyCwoRaeHzbvHXF-1">
          <mxGeometry y="64" width="148" height="32" as="geometry" />
        </mxCell>
        <mxCell id="hqws4eyCwoRaeHzbvHXF-7" value="" style="shape=partialRectangle;html=1;whiteSpace=wrap;connectable=0;strokeColor=inherit;overflow=hidden;fillColor=none;top=0;left=0;bottom=0;right=0;pointerEvents=1;" vertex="1" parent="hqws4eyCwoRaeHzbvHXF-6">
          <mxGeometry width="148" height="32" as="geometry">
            <mxRectangle width="148" height="32" as="alternateBounds" />
          </mxGeometry>
        </mxCell>
        <mxCell id="hqws4eyCwoRaeHzbvHXF-8" value="" style="shape=tableRow;horizontal=0;startSize=0;swimlaneHead=0;swimlaneBody=0;strokeColor=inherit;top=0;left=0;bottom=0;right=0;collapsible=0;dropTarget=0;fillColor=none;points=[[0,0.5],[1,0.5]];portConstraint=eastwest;" vertex="1" parent="hqws4eyCwoRaeHzbvHXF-1">
          <mxGeometry y="96" width="148" height="32" as="geometry" />
        </mxCell>
        <mxCell id="hqws4eyCwoRaeHzbvHXF-9" value="" style="shape=partialRectangle;html=1;whiteSpace=wrap;connectable=0;strokeColor=inherit;overflow=hidden;fillColor=none;top=0;left=0;bottom=0;right=0;pointerEvents=1;" vertex="1" parent="hqws4eyCwoRaeHzbvHXF-8">
          <mxGeometry width="148" height="32" as="geometry">
            <mxRectangle width="148" height="32" as="alternateBounds" />
          </mxGeometry>
        </mxCell>
        <mxCell id="hqws4eyCwoRaeHzbvHXF-21" value="" style="group" vertex="1" connectable="0" parent="1">
          <mxGeometry x="1179" y="857.07" width="322.5" height="82.25" as="geometry" />
        </mxCell>
        <mxCell id="hqws4eyCwoRaeHzbvHXF-14" value="" style="endArrow=classic;html=1;rounded=0;strokeWidth=2;" edge="1" parent="hqws4eyCwoRaeHzbvHXF-21">
          <mxGeometry width="50" height="50" relative="1" as="geometry">
            <mxPoint y="35.841939546599484" as="sourcePoint" />
            <mxPoint x="58.050000000000004" y="35.841939546599484" as="targetPoint" />
          </mxGeometry>
        </mxCell>
        <mxCell id="hqws4eyCwoRaeHzbvHXF-17" value="" style="endArrow=classic;html=1;rounded=0;strokeWidth=2;" edge="1" parent="hqws4eyCwoRaeHzbvHXF-21">
          <mxGeometry width="50" height="50" relative="1" as="geometry">
            <mxPoint x="273.05" y="38.32808564231738" as="sourcePoint" />
            <mxPoint x="322.5" y="38.32808564231738" as="targetPoint" />
          </mxGeometry>
        </mxCell>
        <mxCell id="hqws4eyCwoRaeHzbvHXF-10" value="" style="rounded=0;whiteSpace=wrap;html=1;fillColor=#bac8d3;strokeColor=#23445d;strokeWidth=2;container=0;" vertex="1" parent="hqws4eyCwoRaeHzbvHXF-21">
          <mxGeometry x="59.48333333333335" width="19.025975177304964" height="81.67482517482516" as="geometry" />
        </mxCell>
        <mxCell id="hqws4eyCwoRaeHzbvHXF-11" value="" style="rounded=0;whiteSpace=wrap;html=1;fillColor=#bac8d3;strokeColor=#23445d;strokeWidth=2;container=0;" vertex="1" parent="hqws4eyCwoRaeHzbvHXF-21">
          <mxGeometry x="155.21170212765958" width="19.025975177304964" height="81.67482517482516" as="geometry" />
        </mxCell>
        <mxCell id="hqws4eyCwoRaeHzbvHXF-12" value="" style="rounded=0;whiteSpace=wrap;html=1;fillColor=#bac8d3;strokeColor=#23445d;strokeWidth=2;container=0;" vertex="1" parent="hqws4eyCwoRaeHzbvHXF-21">
          <mxGeometry x="254.02402482269503" y="0.5751748251747804" width="19.025975177304964" height="81.67482517482516" as="geometry" />
        </mxCell>
        <mxCell id="hqws4eyCwoRaeHzbvHXF-15" value="" style="endArrow=classic;html=1;rounded=0;strokeWidth=2;" edge="1" parent="hqws4eyCwoRaeHzbvHXF-21">
          <mxGeometry width="50" height="50" relative="1" as="geometry">
            <mxPoint x="78.83333333333334" y="37.499370277078086" as="sourcePoint" />
            <mxPoint x="154.8" y="37.499370277078086" as="targetPoint" />
          </mxGeometry>
        </mxCell>
        <mxCell id="hqws4eyCwoRaeHzbvHXF-16" value="" style="endArrow=classic;html=1;rounded=0;strokeWidth=2;" edge="1" parent="hqws4eyCwoRaeHzbvHXF-21">
          <mxGeometry width="50" height="50" relative="1" as="geometry">
            <mxPoint x="174.23600000000002" y="37.499370277078086" as="sourcePoint" />
            <mxPoint x="252.98333333333338" y="37.499370277078086" as="targetPoint" />
          </mxGeometry>
        </mxCell>
        <mxCell id="hqws4eyCwoRaeHzbvHXF-22" value="&lt;font style=&quot;font-size: 32px;&quot; color=&quot;#000000&quot;&gt;Early wakeup logic&lt;/font&gt;" style="rounded=0;whiteSpace=wrap;html=1;fillColor=#CDA2BE;fontColor=#FFFFFF;shadow=1;" vertex="1" parent="1">
          <mxGeometry x="860" y="830.75" width="295" height="48.25" as="geometry" />
        </mxCell>
        <mxCell id="hqws4eyCwoRaeHzbvHXF-23" style="edgeStyle=orthogonalEdgeStyle;rounded=0;orthogonalLoop=1;jettySize=auto;html=1;exitX=0.5;exitY=1;exitDx=0;exitDy=0;" edge="1" parent="1">
          <mxGeometry relative="1" as="geometry">
            <mxPoint x="1336" y="957.32" as="sourcePoint" />
            <mxPoint x="1336" y="957.32" as="targetPoint" />
          </mxGeometry>
        </mxCell>
        <mxCell id="hqws4eyCwoRaeHzbvHXF-25" style="edgeStyle=orthogonalEdgeStyle;rounded=0;orthogonalLoop=1;jettySize=auto;html=1;entryX=0.5;entryY=1;entryDx=0;entryDy=0;exitX=0.5;exitY=1;exitDx=0;exitDy=0;strokeWidth=2;" edge="1" parent="1" source="hqws4eyCwoRaeHzbvHXF-24" target="hqws4eyCwoRaeHzbvHXF-22">
          <mxGeometry relative="1" as="geometry">
            <Array as="points">
              <mxPoint x="1338" y="972" />
              <mxPoint x="1008" y="972" />
            </Array>
          </mxGeometry>
        </mxCell>
        <mxCell id="hqws4eyCwoRaeHzbvHXF-24" value="" style="rounded=0;whiteSpace=wrap;html=1;dashed=1;dashPattern=8 8;strokeWidth=2;fillColor=none;" vertex="1" parent="1">
          <mxGeometry x="1198" y="843.25" width="280" height="103" as="geometry" />
        </mxCell>
        <mxCell id="hqws4eyCwoRaeHzbvHXF-26" style="edgeStyle=orthogonalEdgeStyle;rounded=0;orthogonalLoop=1;jettySize=auto;html=1;entryX=0.5;entryY=1;entryDx=0;entryDy=0;exitX=0.461;exitY=1.06;exitDx=0;exitDy=0;exitPerimeter=0;strokeWidth=2;" edge="1" parent="1" source="hqws4eyCwoRaeHzbvHXF-8" target="hqws4eyCwoRaeHzbvHXF-22">
          <mxGeometry relative="1" as="geometry">
            <mxPoint x="1530" y="1002" as="sourcePoint" />
            <mxPoint x="1126" y="976" as="targetPoint" />
            <Array as="points">
              <mxPoint x="1571" y="986" />
              <mxPoint x="1008" y="986" />
            </Array>
          </mxGeometry>
        </mxCell>
        <mxCell id="hqws4eyCwoRaeHzbvHXF-27" value="&lt;font style=&quot;font-size: 48px;&quot;&gt;L2 Cache&lt;/font&gt;" style="rounded=0;whiteSpace=wrap;html=1;strokeWidth=2;fillColor=none;strokeColor=none;" vertex="1" parent="1">
          <mxGeometry x="696" y="943.5" width="242" height="82" as="geometry" />
        </mxCell>
      </root>
    </mxGraphModel>
  </diagram>
  <diagram id="hvl_n11fabRryGSmzpga" name="第 2 页">
    <mxGraphModel dx="2440" dy="1306" grid="0" gridSize="10" guides="1" tooltips="1" connect="1" arrows="1" fold="1" page="1" pageScale="1" pageWidth="2339" pageHeight="3300" math="0" shadow="0">
      <root>
        <mxCell id="0" />
        <mxCell id="1" parent="0" />
        <mxCell id="d6akdNrpmjku2xkv3_c--89" value="" style="group" vertex="1" connectable="0" parent="1">
          <mxGeometry x="97" y="174" width="2165" height="1018.5" as="geometry" />
        </mxCell>
        <mxCell id="d6akdNrpmjku2xkv3_c--1" value="" style="rounded=1;whiteSpace=wrap;html=1;strokeWidth=2;" vertex="1" parent="d6akdNrpmjku2xkv3_c--89">
          <mxGeometry x="446" y="233" width="611" height="467" as="geometry" />
        </mxCell>
        <mxCell id="d6akdNrpmjku2xkv3_c--2" value="&lt;font style=&quot;font-size: 24px;&quot;&gt;0x8000&lt;/font&gt;" style="rounded=0;whiteSpace=wrap;html=1;strokeWidth=2;" vertex="1" parent="d6akdNrpmjku2xkv3_c--89">
          <mxGeometry x="474" y="315" width="120" height="60" as="geometry" />
        </mxCell>
        <mxCell id="d6akdNrpmjku2xkv3_c--3" value="&lt;font style=&quot;font-size: 24px;&quot;&gt;0x9840&lt;/font&gt;" style="rounded=0;whiteSpace=wrap;html=1;strokeWidth=2;" vertex="1" parent="d6akdNrpmjku2xkv3_c--89">
          <mxGeometry x="474" y="400" width="120" height="60" as="geometry" />
        </mxCell>
        <mxCell id="d6akdNrpmjku2xkv3_c--4" value="" style="rounded=0;whiteSpace=wrap;html=1;strokeWidth=2;" vertex="1" parent="d6akdNrpmjku2xkv3_c--89">
          <mxGeometry x="474" y="494.5" width="120" height="60" as="geometry" />
        </mxCell>
        <mxCell id="d6akdNrpmjku2xkv3_c--5" value="&lt;font style=&quot;font-size: 24px;&quot;&gt;1000101010101001&lt;/font&gt;" style="rounded=0;whiteSpace=wrap;html=1;strokeWidth=2;" vertex="1" parent="d6akdNrpmjku2xkv3_c--89">
          <mxGeometry x="660" y="315" width="366" height="60" as="geometry" />
        </mxCell>
        <mxCell id="d6akdNrpmjku2xkv3_c--6" value="&lt;font style=&quot;font-size: 24px;&quot;&gt;1111111111111111&lt;/font&gt;" style="rounded=0;whiteSpace=wrap;html=1;strokeWidth=2;" vertex="1" parent="d6akdNrpmjku2xkv3_c--89">
          <mxGeometry x="660" y="406" width="366" height="60" as="geometry" />
        </mxCell>
        <mxCell id="d6akdNrpmjku2xkv3_c--7" value="&lt;font style=&quot;font-size: 24px;&quot;&gt;1101100000000000&lt;/font&gt;" style="rounded=0;whiteSpace=wrap;html=1;strokeWidth=2;" vertex="1" parent="d6akdNrpmjku2xkv3_c--89">
          <mxGeometry x="660" y="497" width="366" height="60" as="geometry" />
        </mxCell>
        <mxCell id="d6akdNrpmjku2xkv3_c--8" value="&lt;font style=&quot;font-size: 24px;&quot;&gt;TAG&lt;/font&gt;" style="text;html=1;strokeColor=none;fillColor=none;align=center;verticalAlign=middle;whiteSpace=wrap;rounded=0;strokeWidth=2;" vertex="1" parent="d6akdNrpmjku2xkv3_c--89">
          <mxGeometry x="499" y="264" width="60" height="30" as="geometry" />
        </mxCell>
        <mxCell id="d6akdNrpmjku2xkv3_c--9" value="&lt;span style=&quot;font-size: 24px;&quot;&gt;Spatial History&lt;/span&gt;" style="text;html=1;strokeColor=none;fillColor=none;align=center;verticalAlign=middle;whiteSpace=wrap;rounded=0;strokeWidth=2;" vertex="1" parent="d6akdNrpmjku2xkv3_c--89">
          <mxGeometry x="754.5" y="264" width="177" height="30" as="geometry" />
        </mxCell>
        <mxCell id="d6akdNrpmjku2xkv3_c--10" value="" style="rounded=0;whiteSpace=wrap;html=1;strokeWidth=2;" vertex="1" parent="d6akdNrpmjku2xkv3_c--89">
          <mxGeometry x="474" y="588" width="120" height="60" as="geometry" />
        </mxCell>
        <mxCell id="d6akdNrpmjku2xkv3_c--11" value="" style="rounded=0;whiteSpace=wrap;html=1;strokeWidth=2;" vertex="1" parent="d6akdNrpmjku2xkv3_c--89">
          <mxGeometry x="660" y="590.5" width="366" height="60" as="geometry" />
        </mxCell>
        <mxCell id="d6akdNrpmjku2xkv3_c--12" value="&lt;span style=&quot;font-size: 24px;&quot;&gt;...&lt;/span&gt;" style="text;html=1;strokeColor=none;fillColor=none;align=center;verticalAlign=middle;whiteSpace=wrap;rounded=0;strokeWidth=2;" vertex="1" parent="d6akdNrpmjku2xkv3_c--89">
          <mxGeometry x="504" y="663" width="60" height="30" as="geometry" />
        </mxCell>
        <mxCell id="d6akdNrpmjku2xkv3_c--13" value="&lt;span style=&quot;font-size: 24px;&quot;&gt;...&lt;/span&gt;" style="text;html=1;strokeColor=none;fillColor=none;align=center;verticalAlign=middle;whiteSpace=wrap;rounded=0;strokeWidth=2;" vertex="1" parent="d6akdNrpmjku2xkv3_c--89">
          <mxGeometry x="819.5" y="663" width="60" height="30" as="geometry" />
        </mxCell>
        <mxCell id="d6akdNrpmjku2xkv3_c--14" value="&lt;font style=&quot;font-size: 24px;&quot;&gt;0x9841&lt;/font&gt;" style="rounded=0;whiteSpace=wrap;html=1;strokeWidth=2;" vertex="1" parent="d6akdNrpmjku2xkv3_c--89">
          <mxGeometry x="474" y="494.5" width="120" height="60" as="geometry" />
        </mxCell>
        <mxCell id="d6akdNrpmjku2xkv3_c--24" value="" style="group;strokeWidth=2;" vertex="1" connectable="0" parent="d6akdNrpmjku2xkv3_c--89">
          <mxGeometry x="19" y="278" width="322" height="64" as="geometry" />
        </mxCell>
        <mxCell id="d6akdNrpmjku2xkv3_c--15" value="" style="rounded=0;whiteSpace=wrap;html=1;strokeWidth=2;" vertex="1" parent="d6akdNrpmjku2xkv3_c--24">
          <mxGeometry width="322" height="64.00000000000001" as="geometry" />
        </mxCell>
        <mxCell id="d6akdNrpmjku2xkv3_c--20" value="" style="endArrow=none;html=1;rounded=0;exitX=0.75;exitY=1;exitDx=0;exitDy=0;entryX=0.75;entryY=0;entryDx=0;entryDy=0;strokeWidth=2;" edge="1" parent="d6akdNrpmjku2xkv3_c--24">
          <mxGeometry width="50" height="50" relative="1" as="geometry">
            <mxPoint x="303" y="64.00000000000001" as="sourcePoint" />
            <mxPoint x="303" as="targetPoint" />
          </mxGeometry>
        </mxCell>
        <mxCell id="d6akdNrpmjku2xkv3_c--21" value="" style="endArrow=none;html=1;rounded=0;exitX=0.75;exitY=1;exitDx=0;exitDy=0;entryX=0.75;entryY=0;entryDx=0;entryDy=0;strokeWidth=2;" edge="1" parent="d6akdNrpmjku2xkv3_c--24">
          <mxGeometry width="50" height="50" relative="1" as="geometry">
            <mxPoint x="163" y="64.00000000000001" as="sourcePoint" />
            <mxPoint x="163" as="targetPoint" />
          </mxGeometry>
        </mxCell>
        <mxCell id="d6akdNrpmjku2xkv3_c--22" value="&lt;font style=&quot;font-size: 24px;&quot;&gt;Region Tag&lt;/font&gt;" style="text;html=1;strokeColor=none;fillColor=none;align=center;verticalAlign=middle;whiteSpace=wrap;rounded=0;strokeWidth=2;" vertex="1" parent="d6akdNrpmjku2xkv3_c--24">
          <mxGeometry x="25" y="3.139607843137256" width="118" height="55.84313725490196" as="geometry" />
        </mxCell>
        <mxCell id="d6akdNrpmjku2xkv3_c--23" value="&lt;font style=&quot;font-size: 24px;&quot;&gt;Region Offset&lt;/font&gt;" style="text;html=1;strokeColor=none;fillColor=none;align=center;verticalAlign=middle;whiteSpace=wrap;rounded=0;strokeWidth=2;" vertex="1" parent="d6akdNrpmjku2xkv3_c--24">
          <mxGeometry x="173" y="3.1372549019607847" width="130" height="57.72549019607843" as="geometry" />
        </mxCell>
        <mxCell id="d6akdNrpmjku2xkv3_c--26" style="edgeStyle=orthogonalEdgeStyle;rounded=0;orthogonalLoop=1;jettySize=auto;html=1;entryX=0.1;entryY=0.5;entryDx=0;entryDy=0;entryPerimeter=0;strokeWidth=2;exitX=0.25;exitY=1;exitDx=0;exitDy=0;" edge="1" parent="d6akdNrpmjku2xkv3_c--89" source="d6akdNrpmjku2xkv3_c--15" target="d6akdNrpmjku2xkv3_c--27">
          <mxGeometry relative="1" as="geometry">
            <mxPoint x="89" y="368" as="sourcePoint" />
            <mxPoint x="423" y="474" as="targetPoint" />
          </mxGeometry>
        </mxCell>
        <mxCell id="d6akdNrpmjku2xkv3_c--27" value="" style="shape=curlyBracket;whiteSpace=wrap;html=1;rounded=1;labelPosition=left;verticalLabelPosition=middle;align=right;verticalAlign=middle;strokeWidth=2;" vertex="1" parent="d6akdNrpmjku2xkv3_c--89">
          <mxGeometry x="421" y="336" width="20" height="295" as="geometry" />
        </mxCell>
        <mxCell id="d6akdNrpmjku2xkv3_c--28" style="edgeStyle=orthogonalEdgeStyle;rounded=0;orthogonalLoop=1;jettySize=auto;html=1;exitX=0.999;exitY=0.52;exitDx=0;exitDy=0;strokeWidth=2;exitPerimeter=0;entryX=0.5;entryY=0;entryDx=0;entryDy=0;" edge="1" parent="d6akdNrpmjku2xkv3_c--89" source="d6akdNrpmjku2xkv3_c--1" target="d6akdNrpmjku2xkv3_c--31">
          <mxGeometry relative="1" as="geometry">
            <mxPoint x="1167" y="463" as="sourcePoint" />
            <mxPoint x="1191.4479999999999" y="354.3599999999999" as="targetPoint" />
          </mxGeometry>
        </mxCell>
        <mxCell id="d6akdNrpmjku2xkv3_c--31" value="&lt;font style=&quot;font-size: 24px;&quot;&gt;11&lt;b&gt;&lt;font color=&quot;#cc0000&quot;&gt;0&lt;/font&gt;&lt;/b&gt;1100000000000&lt;/font&gt;" style="rounded=0;whiteSpace=wrap;html=1;strokeWidth=2;" vertex="1" parent="d6akdNrpmjku2xkv3_c--89">
          <mxGeometry x="331" y="771" width="366" height="60" as="geometry" />
        </mxCell>
        <mxCell id="d6akdNrpmjku2xkv3_c--33" value="" style="shape=curlyBracket;whiteSpace=wrap;html=1;rounded=1;flipH=1;labelPosition=right;verticalLabelPosition=middle;align=left;verticalAlign=middle;rotation=90;strokeWidth=2;" vertex="1" parent="d6akdNrpmjku2xkv3_c--89">
          <mxGeometry x="665.5" y="620.5" width="20" height="465" as="geometry" />
        </mxCell>
        <mxCell id="d6akdNrpmjku2xkv3_c--34" value="&lt;font style=&quot;font-size: 24px;&quot;&gt;0000&lt;b&gt;&lt;font color=&quot;#cc0000&quot;&gt;11&lt;/font&gt;&lt;/b&gt;0000000000&lt;/font&gt;" style="rounded=0;whiteSpace=wrap;html=1;strokeWidth=2;" vertex="1" parent="d6akdNrpmjku2xkv3_c--89">
          <mxGeometry x="811" y="769" width="366" height="60" as="geometry" />
        </mxCell>
        <mxCell id="d6akdNrpmjku2xkv3_c--35" value="" style="shape=curlyBracket;whiteSpace=wrap;html=1;rounded=1;flipH=1;labelPosition=right;verticalLabelPosition=middle;align=left;verticalAlign=middle;rotation=90;strokeWidth=2;" vertex="1" parent="d6akdNrpmjku2xkv3_c--89">
          <mxGeometry x="942" y="448" width="20" height="1017" as="geometry" />
        </mxCell>
        <mxCell id="d6akdNrpmjku2xkv3_c--36" value="&lt;font style=&quot;font-size: 24px;&quot;&gt;00000&lt;font color=&quot;#cc0000&quot;&gt;&lt;b&gt;1111&lt;/b&gt;&lt;/font&gt;0000000&lt;/font&gt;" style="rounded=0;whiteSpace=wrap;html=1;strokeWidth=2;" vertex="1" parent="d6akdNrpmjku2xkv3_c--89">
          <mxGeometry x="1365" y="876" width="366" height="60" as="geometry" />
        </mxCell>
        <mxCell id="d6akdNrpmjku2xkv3_c--37" value="&lt;span style=&quot;font-size: 24px;&quot;&gt;L1 Distance&lt;br&gt;&lt;/span&gt;" style="text;html=1;strokeColor=none;fillColor=none;align=center;verticalAlign=middle;whiteSpace=wrap;rounded=0;strokeWidth=2;" vertex="1" parent="d6akdNrpmjku2xkv3_c--89">
          <mxGeometry x="589.5" y="869" width="165" height="44.5" as="geometry" />
        </mxCell>
        <mxCell id="d6akdNrpmjku2xkv3_c--38" value="&lt;span style=&quot;font-size: 24px;&quot;&gt;L2 Distance&lt;br&gt;&lt;/span&gt;" style="text;html=1;strokeColor=none;fillColor=none;align=center;verticalAlign=middle;whiteSpace=wrap;rounded=0;strokeWidth=2;" vertex="1" parent="d6akdNrpmjku2xkv3_c--89">
          <mxGeometry x="869.5" y="974" width="165" height="44.5" as="geometry" />
        </mxCell>
        <mxCell id="d6akdNrpmjku2xkv3_c--39" value="" style="rounded=1;whiteSpace=wrap;html=1;strokeWidth=2;" vertex="1" parent="d6akdNrpmjku2xkv3_c--89">
          <mxGeometry x="1274" y="235" width="773" height="467" as="geometry" />
        </mxCell>
        <mxCell id="d6akdNrpmjku2xkv3_c--58" style="edgeStyle=orthogonalEdgeStyle;rounded=0;orthogonalLoop=1;jettySize=auto;html=1;exitX=1;exitY=0.5;exitDx=0;exitDy=0;entryX=0;entryY=0.5;entryDx=0;entryDy=0;strokeWidth=2;" edge="1" parent="d6akdNrpmjku2xkv3_c--89" source="d6akdNrpmjku2xkv3_c--34" target="d6akdNrpmjku2xkv3_c--39">
          <mxGeometry relative="1" as="geometry" />
        </mxCell>
        <mxCell id="d6akdNrpmjku2xkv3_c--59" style="edgeStyle=orthogonalEdgeStyle;rounded=0;orthogonalLoop=1;jettySize=auto;html=1;exitX=1;exitY=0.5;exitDx=0;exitDy=0;strokeWidth=2;" edge="1" parent="d6akdNrpmjku2xkv3_c--89" source="d6akdNrpmjku2xkv3_c--36" target="d6akdNrpmjku2xkv3_c--39">
          <mxGeometry relative="1" as="geometry">
            <mxPoint x="1248" y="577" as="targetPoint" />
          </mxGeometry>
        </mxCell>
        <mxCell id="d6akdNrpmjku2xkv3_c--40" value="&lt;font style=&quot;font-size: 24px;&quot;&gt;0x9842&lt;/font&gt;" style="rounded=0;whiteSpace=wrap;html=1;strokeWidth=2;" vertex="1" parent="d6akdNrpmjku2xkv3_c--89">
          <mxGeometry x="1310" y="291" width="105" height="60" as="geometry" />
        </mxCell>
        <mxCell id="d6akdNrpmjku2xkv3_c--41" value="&lt;font style=&quot;font-size: 24px;&quot;&gt;1&lt;/font&gt;" style="rounded=0;whiteSpace=wrap;html=1;strokeWidth=2;" vertex="1" parent="d6akdNrpmjku2xkv3_c--89">
          <mxGeometry x="1454" y="290" width="50" height="61" as="geometry" />
        </mxCell>
        <mxCell id="d6akdNrpmjku2xkv3_c--42" value="&lt;span style=&quot;border-color: var(--border-color); font-size: 24px;&quot;&gt;&lt;font style=&quot;border-color: var(--border-color);&quot;&gt;0000&lt;/font&gt;&lt;font style=&quot;font-weight: bold; border-color: var(--border-color);&quot; color=&quot;#cc0000&quot;&gt;11&lt;/font&gt;&lt;/span&gt;&lt;span style=&quot;font-size: 24px;&quot;&gt;0000000000&lt;/span&gt;" style="rounded=0;whiteSpace=wrap;html=1;strokeWidth=2;" vertex="1" parent="d6akdNrpmjku2xkv3_c--89">
          <mxGeometry x="1537" y="291" width="316" height="61" as="geometry" />
        </mxCell>
        <mxCell id="d6akdNrpmjku2xkv3_c--43" value="&lt;font style=&quot;font-size: 24px;&quot;&gt;TAG&lt;/font&gt;" style="text;html=1;strokeColor=none;fillColor=none;align=center;verticalAlign=middle;whiteSpace=wrap;rounded=0;strokeWidth=2;" vertex="1" parent="d6akdNrpmjku2xkv3_c--89">
          <mxGeometry x="1330" y="248" width="60" height="30" as="geometry" />
        </mxCell>
        <mxCell id="d6akdNrpmjku2xkv3_c--44" value="&lt;font style=&quot;font-size: 24px;&quot;&gt;VA?&lt;/font&gt;" style="text;html=1;strokeColor=none;fillColor=none;align=center;verticalAlign=middle;whiteSpace=wrap;rounded=0;strokeWidth=2;" vertex="1" parent="d6akdNrpmjku2xkv3_c--89">
          <mxGeometry x="1449" y="248" width="60" height="30" as="geometry" />
        </mxCell>
        <mxCell id="d6akdNrpmjku2xkv3_c--45" value="&lt;font style=&quot;font-size: 24px;&quot;&gt;Prefetch Vector&lt;/font&gt;" style="text;html=1;strokeColor=none;fillColor=none;align=center;verticalAlign=middle;whiteSpace=wrap;rounded=0;strokeWidth=2;" vertex="1" parent="d6akdNrpmjku2xkv3_c--89">
          <mxGeometry x="1597" y="248" width="179" height="30" as="geometry" />
        </mxCell>
        <mxCell id="d6akdNrpmjku2xkv3_c--46" value="&lt;font style=&quot;font-size: 24px;&quot;&gt;0x9843&lt;/font&gt;" style="rounded=0;whiteSpace=wrap;html=1;strokeWidth=2;" vertex="1" parent="d6akdNrpmjku2xkv3_c--89">
          <mxGeometry x="1310" y="376" width="105" height="60" as="geometry" />
        </mxCell>
        <mxCell id="d6akdNrpmjku2xkv3_c--47" value="&lt;font style=&quot;font-size: 24px;&quot;&gt;1&lt;/font&gt;" style="rounded=0;whiteSpace=wrap;html=1;strokeWidth=2;" vertex="1" parent="d6akdNrpmjku2xkv3_c--89">
          <mxGeometry x="1454" y="375" width="50" height="61" as="geometry" />
        </mxCell>
        <mxCell id="d6akdNrpmjku2xkv3_c--48" value="&lt;font style=&quot;border-color: var(--border-color); font-size: 24px;&quot;&gt;&lt;span style=&quot;border-color: var(--border-color);&quot;&gt;00000&lt;font style=&quot;font-weight: bold;&quot; color=&quot;#cc0000&quot;&gt;1111&lt;/font&gt;&lt;/span&gt;&lt;/font&gt;&lt;span style=&quot;font-size: 24px;&quot;&gt;0000000&lt;/span&gt;" style="rounded=0;whiteSpace=wrap;html=1;strokeWidth=2;" vertex="1" parent="d6akdNrpmjku2xkv3_c--89">
          <mxGeometry x="1537" y="376" width="316" height="61" as="geometry" />
        </mxCell>
        <mxCell id="d6akdNrpmjku2xkv3_c--49" value="" style="rounded=0;whiteSpace=wrap;html=1;strokeWidth=2;" vertex="1" parent="d6akdNrpmjku2xkv3_c--89">
          <mxGeometry x="1310" y="465" width="105" height="60" as="geometry" />
        </mxCell>
        <mxCell id="d6akdNrpmjku2xkv3_c--50" value="" style="rounded=0;whiteSpace=wrap;html=1;strokeWidth=2;" vertex="1" parent="d6akdNrpmjku2xkv3_c--89">
          <mxGeometry x="1454" y="464" width="50" height="61" as="geometry" />
        </mxCell>
        <mxCell id="d6akdNrpmjku2xkv3_c--51" value="" style="rounded=0;whiteSpace=wrap;html=1;strokeWidth=2;" vertex="1" parent="d6akdNrpmjku2xkv3_c--89">
          <mxGeometry x="1537" y="465" width="316" height="61" as="geometry" />
        </mxCell>
        <mxCell id="d6akdNrpmjku2xkv3_c--52" value="" style="rounded=0;whiteSpace=wrap;html=1;strokeWidth=2;" vertex="1" parent="d6akdNrpmjku2xkv3_c--89">
          <mxGeometry x="1312" y="555.5" width="105" height="60" as="geometry" />
        </mxCell>
        <mxCell id="d6akdNrpmjku2xkv3_c--53" value="" style="rounded=0;whiteSpace=wrap;html=1;strokeWidth=2;" vertex="1" parent="d6akdNrpmjku2xkv3_c--89">
          <mxGeometry x="1456" y="554.5" width="50" height="61" as="geometry" />
        </mxCell>
        <mxCell id="d6akdNrpmjku2xkv3_c--54" value="" style="rounded=0;whiteSpace=wrap;html=1;strokeWidth=2;" vertex="1" parent="d6akdNrpmjku2xkv3_c--89">
          <mxGeometry x="1539" y="555.5" width="316" height="61" as="geometry" />
        </mxCell>
        <mxCell id="d6akdNrpmjku2xkv3_c--55" value="&lt;span style=&quot;font-size: 24px;&quot;&gt;...&lt;/span&gt;" style="text;html=1;strokeColor=none;fillColor=none;align=center;verticalAlign=middle;whiteSpace=wrap;rounded=0;strokeWidth=2;" vertex="1" parent="d6akdNrpmjku2xkv3_c--89">
          <mxGeometry x="1337" y="633" width="60" height="30" as="geometry" />
        </mxCell>
        <mxCell id="d6akdNrpmjku2xkv3_c--56" value="&lt;span style=&quot;font-size: 24px;&quot;&gt;...&lt;/span&gt;" style="text;html=1;strokeColor=none;fillColor=none;align=center;verticalAlign=middle;whiteSpace=wrap;rounded=0;strokeWidth=2;" vertex="1" parent="d6akdNrpmjku2xkv3_c--89">
          <mxGeometry x="1665" y="633" width="60" height="30" as="geometry" />
        </mxCell>
        <mxCell id="d6akdNrpmjku2xkv3_c--57" value="&lt;span style=&quot;font-size: 24px;&quot;&gt;...&lt;/span&gt;" style="text;html=1;strokeColor=none;fillColor=none;align=center;verticalAlign=middle;whiteSpace=wrap;rounded=0;strokeWidth=2;" vertex="1" parent="d6akdNrpmjku2xkv3_c--89">
          <mxGeometry x="1449" y="636" width="60" height="30" as="geometry" />
        </mxCell>
        <mxCell id="d6akdNrpmjku2xkv3_c--67" value="&lt;span style=&quot;font-size: 24px;&quot;&gt;&lt;b&gt;Load Access Source&lt;/b&gt;&lt;/span&gt;" style="text;html=1;strokeColor=none;fillColor=none;align=center;verticalAlign=middle;whiteSpace=wrap;rounded=0;strokeWidth=2;" vertex="1" parent="d6akdNrpmjku2xkv3_c--89">
          <mxGeometry y="203.5" width="264" height="44.5" as="geometry" />
        </mxCell>
        <mxCell id="d6akdNrpmjku2xkv3_c--68" value="&lt;span style=&quot;font-size: 24px;&quot;&gt;&lt;b&gt;Pattern History Table&lt;/b&gt;&lt;/span&gt;" style="text;html=1;strokeColor=none;fillColor=none;align=center;verticalAlign=middle;whiteSpace=wrap;rounded=0;strokeWidth=2;" vertex="1" parent="d6akdNrpmjku2xkv3_c--89">
          <mxGeometry x="610" y="177" width="264" height="44.5" as="geometry" />
        </mxCell>
        <mxCell id="d6akdNrpmjku2xkv3_c--69" value="&lt;span style=&quot;font-size: 24px;&quot;&gt;&lt;b&gt;Muti-Level Prefetch Queue&lt;/b&gt;&lt;/span&gt;" style="text;html=1;strokeColor=none;fillColor=none;align=center;verticalAlign=middle;whiteSpace=wrap;rounded=0;strokeWidth=2;" vertex="1" parent="d6akdNrpmjku2xkv3_c--89">
          <mxGeometry x="1456" y="177" width="410" height="44.5" as="geometry" />
        </mxCell>
        <mxCell id="d6akdNrpmjku2xkv3_c--71" value="&lt;font style=&quot;font-size: 24px;&quot;&gt;L1&lt;/font&gt;" style="rounded=0;whiteSpace=wrap;html=1;strokeWidth=2;" vertex="1" parent="d6akdNrpmjku2xkv3_c--89">
          <mxGeometry x="1897" y="291" width="88" height="61" as="geometry" />
        </mxCell>
        <mxCell id="d6akdNrpmjku2xkv3_c--73" value="&lt;font style=&quot;font-size: 24px;&quot;&gt;L2&lt;/font&gt;" style="rounded=0;whiteSpace=wrap;html=1;strokeWidth=2;" vertex="1" parent="d6akdNrpmjku2xkv3_c--89">
          <mxGeometry x="1897" y="379" width="88" height="61" as="geometry" />
        </mxCell>
        <mxCell id="d6akdNrpmjku2xkv3_c--74" value="&lt;font style=&quot;font-size: 24px;&quot;&gt;Sink&lt;/font&gt;" style="text;html=1;strokeColor=none;fillColor=none;align=center;verticalAlign=middle;whiteSpace=wrap;rounded=0;strokeWidth=2;" vertex="1" parent="d6akdNrpmjku2xkv3_c--89">
          <mxGeometry x="1889" y="248" width="96" height="30" as="geometry" />
        </mxCell>
        <mxCell id="d6akdNrpmjku2xkv3_c--75" value="" style="rounded=0;whiteSpace=wrap;html=1;strokeWidth=2;" vertex="1" parent="d6akdNrpmjku2xkv3_c--89">
          <mxGeometry x="1897" y="470" width="88" height="61" as="geometry" />
        </mxCell>
        <mxCell id="d6akdNrpmjku2xkv3_c--76" value="" style="rounded=0;whiteSpace=wrap;html=1;strokeWidth=2;" vertex="1" parent="d6akdNrpmjku2xkv3_c--89">
          <mxGeometry x="1897" y="555" width="88" height="61" as="geometry" />
        </mxCell>
        <mxCell id="d6akdNrpmjku2xkv3_c--77" value="&lt;font style=&quot;font-size: 24px;&quot;&gt;TLB&lt;/font&gt;" style="rounded=1;whiteSpace=wrap;html=1;strokeWidth=2;" vertex="1" parent="d6akdNrpmjku2xkv3_c--89">
          <mxGeometry x="1556.5" width="208" height="65" as="geometry" />
        </mxCell>
        <mxCell id="d6akdNrpmjku2xkv3_c--78" value="" style="shape=flexArrow;endArrow=classic;startArrow=classic;html=1;rounded=0;strokeWidth=2;" edge="1" parent="d6akdNrpmjku2xkv3_c--89">
          <mxGeometry width="100" height="100" relative="1" as="geometry">
            <mxPoint x="1665" y="177" as="sourcePoint" />
            <mxPoint x="1665" y="75" as="targetPoint" />
          </mxGeometry>
        </mxCell>
        <mxCell id="d6akdNrpmjku2xkv3_c--79" value="" style="shape=flexArrow;endArrow=classic;html=1;rounded=0;strokeWidth=2;" edge="1" parent="d6akdNrpmjku2xkv3_c--89">
          <mxGeometry width="50" height="50" relative="1" as="geometry">
            <mxPoint x="2059" y="348" as="sourcePoint" />
            <mxPoint x="2162" y="348" as="targetPoint" />
          </mxGeometry>
        </mxCell>
        <mxCell id="d6akdNrpmjku2xkv3_c--80" value="" style="shape=flexArrow;endArrow=classic;html=1;rounded=0;strokeWidth=2;" edge="1" parent="d6akdNrpmjku2xkv3_c--89">
          <mxGeometry width="50" height="50" relative="1" as="geometry">
            <mxPoint x="2058" y="599" as="sourcePoint" />
            <mxPoint x="2161" y="599" as="targetPoint" />
          </mxGeometry>
        </mxCell>
        <mxCell id="d6akdNrpmjku2xkv3_c--87" value="&lt;font style=&quot;font-size: 24px;&quot;&gt;TO L1&lt;/font&gt;" style="text;html=1;strokeColor=none;fillColor=none;align=center;verticalAlign=middle;whiteSpace=wrap;rounded=0;strokeWidth=2;" vertex="1" parent="d6akdNrpmjku2xkv3_c--89">
          <mxGeometry x="2047" y="286.1596078431372" width="118" height="55.84313725490196" as="geometry" />
        </mxCell>
        <mxCell id="d6akdNrpmjku2xkv3_c--88" value="&lt;font style=&quot;font-size: 24px;&quot;&gt;TO L2&lt;/font&gt;" style="text;html=1;strokeColor=none;fillColor=none;align=center;verticalAlign=middle;whiteSpace=wrap;rounded=0;strokeWidth=2;" vertex="1" parent="d6akdNrpmjku2xkv3_c--89">
          <mxGeometry x="2044" y="534.6596078431372" width="118" height="55.84313725490196" as="geometry" />
        </mxCell>
      </root>
    </mxGraphModel>
  </diagram>
</mxfile>
